<?xml version="1.0" standalone="no"?><!DOCTYPE svg PUBLIC "-//W3C//DTD SVG 1.1//EN" "http://www.w3.org/Graphics/SVG/1.1/DTD/svg11.dtd"><svg t="1679905586019" class="icon" viewBox="0 0 1024 1024" version="1.1" xmlns="http://www.w3.org/2000/svg" p-id="3278" xmlns:xlink="http://www.w3.org/1999/xlink" width="200" height="200"><path d="M748.39267555 302.24384l109.21984-170.02951111 106.24910223 170.02951111H748.39267555z m-19.87697777 37.25880889h230.9632l-397.95825778 488.60728889 166.99392-488.60728889z m-429.54638223 0l163.03217778 489.37073778-397.69315555-489.37073778h234.66097777z m-19.8599111-37.25880889H61.42179555l111.83217778-171.24010667 105.85543112 171.24010667z m35.69436444-12.33237333L205.58279111 113.24302222l252.52181334 0.79189333-143.30083556 175.8776889z m374.88071111 49.59118222l-178.23516445 521.58008889-173.75914666-521.58008889h351.99431111zM562.95196445 114.36828445l261.79925333 0.82944-111.60462223 173.7363911-150.1946311-174.5658311z m-48.85276445-0.15815112L675.88551111 302.24384H352.3584l153.24046222-188.05191111 8.4992 0.01820444z m353.11274667-36.14037333l-701.96337778-2.21752889L3.62154667 323.36099555l507.75608888 624.78677334L1020.37845333 323.1744 867.21194667 78.06976z" p-id="3279"></path></svg>